<svg width="665" height="128" viewBox="0 0 665 128" fill="none" xmlns="http://www.w3.org/2000/svg">
<g filter="url(#filter0_d)">
<path d="M60.2969 16.5469C61.2344 17.7656 61.7031 19.0312 61.7031 20.3438C61.7031 21.9375 61.0938 23.2031 59.875 24.1406C58.6562 24.9844 57.2031 25.4062 55.5156 25.4062C54.6719 25.4062 53.7812 25.1719 52.8438 24.7031C52 24.1406 51.1094 23.5312 50.1719 22.875C49.3281 22.125 48.4375 21.375 47.5 20.625C46.6562 19.7812 45.8594 19.125 45.1094 18.6562C43.9844 18.375 43.0938 18.0938 42.4375 17.8125C41.7812 17.4375 40.7031 17.1562 39.2031 16.9688C35.6406 17.4375 32.4062 18.8438 29.5 21.1875C26.5938 23.4375 24.0625 26.2969 21.9062 29.7656C19.8438 33.1406 18.2031 36.8906 16.9844 41.0156C15.8594 45.1406 15.2969 49.2188 15.2969 53.25C15.2969 56.5312 15.7188 59.625 16.5625 62.5312C17.4062 65.3438 18.7188 67.875 20.5 70.125C22.2812 72.2812 24.4375 74.0156 26.9688 75.3281C29.5938 76.5469 32.6875 77.1562 36.25 77.1562C40.1875 77.1562 43.9375 76.3594 47.5 74.7656C51.0625 73.1719 53.6406 70.875 55.2344 67.875C56.7344 65.7188 58.4219 64.6406 60.2969 64.6406C61.6094 64.6406 62.875 65.1094 64.0938 66.0469C65.4062 66.8906 66.0625 68.1562 66.0625 69.8438C66.0625 71.25 65.6875 72.6094 64.9375 73.9219C64.1875 75.1406 63.25 76.3125 62.125 77.4375C61 78.4688 59.7812 79.4531 58.4688 80.3906C57.1562 81.2344 55.9375 81.9844 54.8125 82.6406C52.0938 84.5156 49.1875 85.875 46.0938 86.7188C43 87.5625 39.9531 87.9844 36.9531 87.9844C32.5469 87.9844 28.375 87.2812 24.4375 85.875C20.5 84.375 17.0312 82.2656 14.0312 79.5469C11.125 76.8281 8.78125 73.4531 7 69.4219C5.21875 65.3906 4.32812 60.75 4.32812 55.5C4.32812 45.6562 6.20312 36.8438 9.95312 29.0625C13.7969 21.1875 19.1406 14.7188 25.9844 9.65625C27.6719 8.34375 29.5938 7.40625 31.75 6.84375C33.9062 6.1875 36.1562 5.85938 38.5 5.85938C41.125 5.85938 43.375 6.14062 45.25 6.70312C47.125 7.26562 48.8594 8.0625 50.4531 9.09375C52.1406 10.0312 53.7344 11.1562 55.2344 12.4688C56.7344 13.7813 58.4219 15.1406 60.2969 16.5469ZM87.1562 34.9688C85.8438 33.4688 85.1875 32.0156 85.1875 30.6094C85.1875 29.0156 85.6562 27.6562 86.5938 26.5312C87.625 25.4062 88.9375 24.8438 90.5312 24.8438C91.75 24.8438 92.9688 25.2188 94.1875 25.9688C95.4062 26.625 96.5312 27.4688 97.5625 28.5C98.5938 29.4375 99.4844 30.375 100.234 31.3125C100.984 32.25 101.453 32.9062 101.641 33.2812C101.828 33.1875 102.25 33.1406 102.906 33.1406C104.688 33.1406 106.375 33.6094 107.969 34.5469C109.656 35.3906 111.156 36.5156 112.469 37.9219C113.875 39.3281 115.094 40.8281 116.125 42.4219C117.156 44.0156 118.047 45.5156 118.797 46.9219C119.547 48.3281 120.203 49.875 120.766 51.5625C121.422 53.1562 121.938 54.7969 122.312 56.4844C122.688 58.1719 122.969 59.8125 123.156 61.4062C123.344 63 123.438 64.4531 123.438 65.7656C123.438 69.6094 122.922 73.2188 121.891 76.5938C120.953 79.875 119.359 82.7812 117.109 85.3125C114.953 87.8438 112.094 89.8125 108.531 91.2188C104.969 92.7188 100.609 93.4688 95.4531 93.4688C91.7031 93.4688 88.6094 92.3438 86.1719 90.0938C83.8281 87.8438 82 85.2188 80.6875 82.2188C79.375 79.125 78.4375 75.9844 77.875 72.7969C77.4062 69.6094 77.1719 67.0312 77.1719 65.0625C77.1719 63.1875 77.4062 61.3594 77.875 59.5781C78.3438 57.7969 78.9531 56.1562 79.7031 54.6562C80.4531 53.0625 81.2031 51.6562 81.9531 50.4375C82.7969 49.2188 83.5938 48.1875 84.3438 47.3438L91.375 39.0469C91.2812 38.6719 90.9531 38.25 90.3906 37.7812C89.9219 37.2188 89.4531 36.7031 88.9844 36.2344L87.1562 34.9688ZM101.359 43.9688L100.797 44.8125C99.6719 46.2188 98.4062 47.6719 97 49.1719C95.6875 50.6719 94.4219 52.2188 93.2031 53.8125C91.9844 55.4062 90.9531 57.1406 90.1094 59.0156C89.2656 60.8906 88.8438 62.9531 88.8438 65.2031C88.8438 67.2656 88.9844 69.3281 89.2656 71.3906C89.6406 73.3594 90.1094 75.1406 90.6719 76.7344C91.3281 78.3281 92.125 79.6406 93.0625 80.6719C94 81.6094 95.0781 82.0781 96.2969 82.0781C97.3281 82.0781 98.3594 81.9844 99.3906 81.7969C100.516 81.6094 101.5 81.4219 102.344 81.2344L107.406 78.7031C107.688 78.3281 108.156 77.8594 108.812 77.2969C109.469 76.6406 109.984 75.9844 110.359 75.3281C111.203 72.2344 111.625 69.1875 111.625 66.1875C111.625 62.25 110.969 58.5 109.656 54.9375C108.344 51.2812 106.328 47.9531 103.609 44.9531L101.922 44.1094H101.781C101.594 44.1094 101.453 44.0625 101.359 43.9688ZM136.375 32.2969C136.75 32.2031 137.172 32.1562 137.641 32.1562C138.109 32.1562 138.672 32.1094 139.328 32.0156H139.469H141.016C145.609 32.0156 148.984 33.7031 151.141 37.0781L151.703 36.5156C152.078 36.4219 152.688 35.9531 153.531 35.1094L153.953 34.9688C156.578 33.6562 158.922 33 160.984 33C165.203 33 168.672 34.3125 171.391 36.9375C174.109 39.5625 176.266 42.6562 177.859 46.2188C177.859 46.3125 177.953 46.4531 178.141 46.6406L178.281 46.7812C179.219 45.375 180.297 44.0156 181.516 42.7031C182.734 41.2969 184 40.0781 185.312 39.0469C186.719 37.9219 188.125 37.0312 189.531 36.375C191.031 35.7188 192.531 35.3906 194.031 35.3906C196.562 35.3906 198.859 36.3281 200.922 38.2031C202.984 39.9844 204.719 42.3281 206.125 45.2344C207.625 48.1406 208.797 51.4219 209.641 55.0781C210.484 58.7344 210.906 62.4375 210.906 66.1875C210.906 69.9375 210.766 73.7344 210.484 77.5781C210.203 81.3281 210.062 85.1719 210.062 89.1094C209.594 91.3594 208.75 92.7188 207.531 93.1875C206.312 93.75 205.281 94.0312 204.438 94.0312L201.203 92.9062C200.828 92.5312 200.078 91.5469 198.953 89.9531V89.8125C198.859 89.8125 198.812 89.7656 198.812 89.6719C198.812 89.5781 198.766 89.5312 198.672 89.5312C198.672 89.5312 198.672 89.4375 198.672 89.25L198.391 88.2656C198.109 87.4219 197.969 86.5312 197.969 85.5938C197.969 84.8438 198.062 84.1406 198.25 83.4844C198.531 82.7344 198.766 82.125 198.953 81.6562L199.375 78.1406C199.562 76.2656 199.703 74.3906 199.797 72.5156C199.891 70.5469 199.938 68.5781 199.938 66.6094C199.938 62.8594 199.516 59.2969 198.672 55.9219C197.828 52.5469 196.328 49.8281 194.172 47.7656C191.453 49.4531 189.25 51.6094 187.562 54.2344C185.969 56.8594 184.703 59.8125 183.766 63.0938C182.922 66.375 182.312 69.8906 181.938 73.6406C181.656 77.2969 181.516 80.9531 181.516 84.6094C181.516 86.1094 180.953 87.4219 179.828 88.5469C178.703 89.6719 177.484 90.2344 176.172 90.2344C174.859 90.2344 173.5 89.8125 172.094 88.9688C170.781 88.125 170.125 86.625 170.125 84.4688C170.125 82.2188 170.125 79.9219 170.125 77.5781C170.219 75.2344 170.359 72.7031 170.547 69.9844C170.547 67.2656 170.406 64.5469 170.125 61.8281C169.938 59.1094 169.562 56.5781 169 54.2344C168.438 51.8906 167.641 49.875 166.609 48.1875C165.578 46.4062 164.266 45.1406 162.672 44.3906C161.641 44.3906 160.656 44.5781 159.719 44.9531C158.875 45.3281 158.031 45.75 157.188 46.2188L156.766 46.5C155.734 47.5312 155.078 48.0938 154.797 48.1875C154.797 51 155.031 53.9062 155.5 56.9062C155.969 59.9062 156.203 63 156.203 66.1875C156.203 68.5312 156.109 71.25 155.922 74.3438C155.828 77.3438 155.5 80.25 154.938 83.0625C154.375 85.7812 153.531 88.0781 152.406 89.9531C151.375 91.9219 149.875 92.9062 147.906 92.9062C146.5 92.9062 145.141 92.4375 143.828 91.5C142.609 90.5625 142 89.0156 142 86.8594C142 86.2969 142.047 85.875 142.141 85.5938C143.922 79.4062 144.812 72.5156 144.812 64.9219C144.812 56.9531 144.062 50.25 142.562 44.8125L142.141 44.25C141.203 44.1562 140.172 43.9688 139.047 43.6875C138.016 43.4062 137.031 43.0312 136.094 42.5625C135.156 42 134.359 41.3438 133.703 40.5938C133.047 39.75 132.719 38.7188 132.719 37.5C132.719 35.1562 133.938 33.4219 136.375 32.2969ZM239.031 48.8906C239.5 46.7344 240.344 45.3281 241.562 44.6719C242.781 43.9219 244.188 43.5469 245.781 43.5469C247.094 43.7344 248.219 44.4375 249.156 45.6562C250.094 46.875 250.562 48.375 250.562 50.1562C250.375 53.8125 250.188 57.0938 250 60C249.812 62.8125 249.672 65.5781 249.578 68.2969C249.484 71.0156 249.391 73.875 249.297 76.875C249.297 79.7812 249.297 83.1562 249.297 87C249.297 88.5938 248.688 89.9062 247.469 90.9375C246.25 92.0625 244.984 92.625 243.672 92.625C242.359 92.625 241.094 92.1562 239.875 91.2188C238.656 90.2812 237.953 88.8281 237.766 86.8594C237.766 79.4531 237.906 73.125 238.188 67.875L239.031 48.8906ZM232.984 28.3594C231.859 27.8906 230.922 27.1875 230.172 26.25C229.516 25.2188 229.188 24.1875 229.188 23.1562C229.188 21.75 229.656 20.3906 230.594 19.0781C231.625 17.7656 233.219 17.1094 235.375 17.1094C238.094 17.5781 240.484 18.375 242.547 19.5C244.609 20.625 246.719 21.3281 248.875 21.6094C250.562 22.0781 251.781 22.9219 252.531 24.1406C253.281 25.2656 253.656 26.3906 253.656 27.5156C253.656 28.8281 253.141 30.0938 252.109 31.3125C251.172 32.5312 249.906 33.1406 248.312 33.1406C246.906 33.1406 245.547 32.9531 244.234 32.5781C243.016 32.2031 241.797 31.7344 240.578 31.1719C239.359 30.6094 238.141 30.0938 236.922 29.625C235.703 29.0625 234.391 28.6406 232.984 28.3594ZM273.625 32.2969C274 32.2031 274.422 32.1562 274.891 32.1562C275.359 32.1562 275.922 32.1094 276.578 32.0156H276.719C280.094 32.0156 282.672 32.5781 284.453 33.7031C286.328 34.7344 287.922 36.5156 289.234 39.0469C291.109 37.1719 293.031 35.8594 295 35.1094C296.969 34.2656 299.031 33.8438 301.188 33.8438C304.844 33.8438 308.125 34.7812 311.031 36.6562C313.938 38.4375 316.375 40.8281 318.344 43.8281C320.406 46.8281 321.953 50.3438 322.984 54.375C324.109 58.3125 324.672 62.3906 324.672 66.6094C324.672 70.5469 324.344 74.3906 323.688 78.1406C323.125 81.8906 322.703 85.4531 322.422 88.8281C321.391 91.2656 319.609 92.7656 317.078 93.3281H316.516C315.203 93.1406 313.891 92.625 312.578 91.7812C311.359 90.9375 310.75 89.4375 310.75 87.2812L310.891 85.875C310.984 85.4062 311.078 85.0312 311.172 84.75C311.266 84.375 311.359 84.0469 311.453 83.7656L312.297 77.5781C312.484 75.8906 312.625 74.2031 312.719 72.5156C312.906 70.8281 313 69.0938 313 67.3125C313 65.4375 312.812 63.2344 312.438 60.7031C312.156 58.1719 311.547 55.7812 310.609 53.5312C309.672 51.1875 308.359 49.2188 306.672 47.625C304.984 46.0312 302.781 45.2344 300.062 45.2344C299.031 45.7969 297.859 46.4531 296.547 47.2031C295.234 47.9531 294.016 48.3281 292.891 48.3281H292.328C292.047 48.3281 291.906 48.4219 291.906 48.6094C291.906 48.7031 291.906 48.75 291.906 48.75C292 48.75 292.047 48.7969 292.047 48.8906C292.516 51.6094 292.844 54.4219 293.031 57.3281C293.312 60.2344 293.453 63.1875 293.453 66.1875C293.453 68.5312 293.359 71.25 293.172 74.3438C293.078 77.3438 292.75 80.25 292.188 83.0625C291.625 85.7812 290.781 88.0781 289.656 89.9531C288.625 91.9219 287.125 92.9062 285.156 92.9062C283.75 92.9062 282.391 92.4375 281.078 91.5C279.859 90.5625 279.25 89.0156 279.25 86.8594C279.25 86.2969 279.297 85.875 279.391 85.5938C281.172 79.4062 282.062 72.5156 282.062 64.9219C282.062 56.9531 281.312 50.25 279.812 44.8125L279.391 44.25C278.453 44.1562 277.422 43.9688 276.297 43.6875C275.266 43.4062 274.281 43.0312 273.344 42.5625C272.406 42 271.609 41.3438 270.953 40.5938C270.297 39.75 269.969 38.7188 269.969 37.5C269.969 35.1562 271.188 33.4219 273.625 32.2969ZM361.938 45.2344C360.344 44.8594 358.891 44.3906 357.578 43.8281C356.359 43.2656 355.047 42.9844 353.641 42.9844C352.328 42.9844 351.156 43.4062 350.125 44.25C349.188 45 348.344 46.0312 347.594 47.3438C346.938 48.6562 346.422 50.1094 346.047 51.7031C345.672 53.2969 345.484 54.9375 345.484 56.625C345.484 57.6562 345.625 58.8281 345.906 60.1406C346.188 61.3594 346.562 62.4844 347.031 63.5156C347.594 64.5469 348.25 65.4375 349 66.1875C349.75 66.8438 350.641 67.1719 351.672 67.1719C353.453 67.1719 355 66.6094 356.312 65.4844C357.719 64.3594 358.844 62.9531 359.688 61.2656C360.531 59.5781 361.141 57.75 361.516 55.7812C361.984 53.8125 362.219 51.9844 362.219 50.2969C362.219 49.4531 362.172 48.6562 362.078 47.9062C361.984 47.0625 361.938 46.1719 361.938 45.2344ZM345.766 119.203C343.609 119.203 342.109 118.5 341.266 117.094C340.422 115.781 340 114.469 340 113.156C340 111.844 340.469 110.625 341.406 109.5C342.438 108.375 343.797 107.812 345.484 107.812C349.422 107.812 352.703 107.203 355.328 105.984C357.953 104.766 360.062 103.125 361.656 101.062C363.344 99 364.516 96.5625 365.172 93.75C365.828 91.0312 366.156 88.125 366.156 85.0312C366.156 82.9688 366.062 80.9062 365.875 78.8438C365.781 76.7812 365.641 74.6719 365.453 72.5156C361.516 76.4531 356.969 78.4219 351.812 78.4219C349 78.4219 346.516 77.8594 344.359 76.7344C342.203 75.5156 340.375 73.9219 338.875 71.9531C337.375 69.8906 336.203 67.5469 335.359 64.9219C334.609 62.2969 334.234 59.5781 334.234 56.7656C334.234 54.0469 334.609 51.1875 335.359 48.1875C336.203 45.1875 337.422 42.4219 339.016 39.8906C340.703 37.3594 342.719 35.2969 345.062 33.7031C347.5 32.0156 350.312 31.1719 353.5 31.1719C355.094 31.1719 356.781 31.4062 358.562 31.875C360.344 32.25 361.984 32.7656 363.484 33.4219C365.078 33.9844 366.438 34.6406 367.562 35.3906C368.688 36.0469 369.391 36.6094 369.672 37.0781C370.234 38.1094 370.516 39.0938 370.516 40.0312L371.219 40.4531C372.156 41.3906 372.906 42.6562 373.469 44.25C373.75 47.5312 374.125 50.7188 374.594 53.8125C375.156 56.8125 375.672 59.8125 376.141 62.8125C376.609 65.7188 377.031 68.7188 377.406 71.8125C377.781 74.8125 377.969 77.9531 377.969 81.2344C377.969 84.9844 377.5 89.0625 376.562 93.4688C375.625 97.9688 374.078 102.094 371.922 105.844C369.859 109.688 367.094 112.875 363.625 115.406C360.25 117.938 356.125 119.203 351.25 119.203H345.766ZM475.281 7.6875C476.125 9.28125 476.547 10.7812 476.547 12.1875C476.547 13.5 475.984 14.6719 474.859 15.7031C473.828 16.6406 472.469 17.1094 470.781 17.1094C469.656 17.1094 468.625 16.875 467.688 16.4062C464.031 13.3125 460.047 11.7656 455.734 11.7656C450.859 11.7656 446.734 13.7344 443.359 17.6719C443.266 18.0469 443.125 18.4688 442.938 18.9375C442.844 19.4062 442.703 19.8281 442.516 20.2031C442.516 24.1406 443.547 27.4219 445.609 30.0469C447.672 32.5781 450.25 34.875 453.344 36.9375C456.438 38.9062 459.766 40.7812 463.328 42.5625C466.891 44.3438 470.219 46.4062 473.312 48.75C476.406 51.0938 478.984 53.9531 481.047 57.3281C483.109 60.6094 484.141 64.7344 484.141 69.7031C484.141 73.8281 483.156 77.2969 481.188 80.1094C479.312 82.9219 476.922 85.2188 474.016 87C471.109 88.6875 468.016 89.9062 464.734 90.6562C461.453 91.5 458.406 91.9219 455.594 91.9219C450.719 91.9219 445.938 90.8906 441.25 88.8281C436.562 86.8594 432.484 83.8594 429.016 79.8281C428.266 78.7969 427.516 77.4844 426.766 75.8906C426.016 74.2969 425.641 72.75 425.641 71.25C425.641 69.6562 426.109 68.2969 427.047 67.1719C428.078 65.9531 429.531 65.3438 431.406 65.3438C433.188 65.3438 434.594 66.1406 435.625 67.7344C436.75 69.2344 437.734 71.1094 438.578 73.3594C441.016 75.7969 443.641 77.625 446.453 78.8438C449.266 79.9688 452.172 80.5312 455.172 80.5312C456.297 80.5312 457.703 80.4375 459.391 80.25C461.078 79.9688 462.719 79.5469 464.312 78.9844C466 78.4219 467.5 77.7188 468.812 76.875C470.219 75.9375 471.203 74.8125 471.766 73.5C471.953 72.75 472.094 72.1406 472.188 71.6719C472.375 71.1094 472.562 70.5938 472.75 70.125C472.188 66.9375 471.016 64.1719 469.234 61.8281C467.547 59.4844 465.531 57.4219 463.188 55.6406C460.844 53.8594 458.359 52.3125 455.734 51C453.203 49.6875 450.859 48.4219 448.703 47.2031C444.859 45.0469 441.391 42.4688 438.297 39.4688C435.203 36.375 432.859 31.9219 431.266 26.1094C430.797 24.4219 430.562 22.8281 430.562 21.3281C430.562 18.1406 431.359 15.2344 432.953 12.6094C434.547 9.98438 436.609 7.78125 439.141 6C441.672 4.125 444.531 2.67188 447.719 1.64062C450.906 0.609375 454.141 0.09375 457.422 0.09375C461.266 0.09375 464.594 0.796875 467.406 2.20312C470.219 3.51563 472.844 5.34375 475.281 7.6875ZM503.828 34.9688C502.516 33.4688 501.859 32.0156 501.859 30.6094C501.859 29.0156 502.328 27.6562 503.266 26.5312C504.297 25.4062 505.609 24.8438 507.203 24.8438C508.422 24.8438 509.641 25.2188 510.859 25.9688C512.078 26.625 513.203 27.4688 514.234 28.5C515.266 29.4375 516.156 30.375 516.906 31.3125C517.656 32.25 518.125 32.9062 518.312 33.2812C518.5 33.1875 518.922 33.1406 519.578 33.1406C521.359 33.1406 523.047 33.6094 524.641 34.5469C526.328 35.3906 527.828 36.5156 529.141 37.9219C530.547 39.3281 531.766 40.8281 532.797 42.4219C533.828 44.0156 534.719 45.5156 535.469 46.9219C536.219 48.3281 536.875 49.875 537.438 51.5625C538.094 53.1562 538.609 54.7969 538.984 56.4844C539.359 58.1719 539.641 59.8125 539.828 61.4062C540.016 63 540.109 64.4531 540.109 65.7656C540.109 69.6094 539.594 73.2188 538.562 76.5938C537.625 79.875 536.031 82.7812 533.781 85.3125C531.625 87.8438 528.766 89.8125 525.203 91.2188C521.641 92.7188 517.281 93.4688 512.125 93.4688C508.375 93.4688 505.281 92.3438 502.844 90.0938C500.5 87.8438 498.672 85.2188 497.359 82.2188C496.047 79.125 495.109 75.9844 494.547 72.7969C494.078 69.6094 493.844 67.0312 493.844 65.0625C493.844 63.1875 494.078 61.3594 494.547 59.5781C495.016 57.7969 495.625 56.1562 496.375 54.6562C497.125 53.0625 497.875 51.6562 498.625 50.4375C499.469 49.2188 500.266 48.1875 501.016 47.3438L508.047 39.0469C507.953 38.6719 507.625 38.25 507.062 37.7812C506.594 37.2188 506.125 36.7031 505.656 36.2344L503.828 34.9688ZM518.031 43.9688L517.469 44.8125C516.344 46.2188 515.078 47.6719 513.672 49.1719C512.359 50.6719 511.094 52.2188 509.875 53.8125C508.656 55.4062 507.625 57.1406 506.781 59.0156C505.938 60.8906 505.516 62.9531 505.516 65.2031C505.516 67.2656 505.656 69.3281 505.938 71.3906C506.312 73.3594 506.781 75.1406 507.344 76.7344C508 78.3281 508.797 79.6406 509.734 80.6719C510.672 81.6094 511.75 82.0781 512.969 82.0781C514 82.0781 515.031 81.9844 516.062 81.7969C517.188 81.6094 518.172 81.4219 519.016 81.2344L524.078 78.7031C524.359 78.3281 524.828 77.8594 525.484 77.2969C526.141 76.6406 526.656 75.9844 527.031 75.3281C527.875 72.2344 528.297 69.1875 528.297 66.1875C528.297 62.25 527.641 58.5 526.328 54.9375C525.016 51.2812 523 47.9531 520.281 44.9531L518.594 44.1094H518.453C518.266 44.1094 518.125 44.0625 518.031 43.9688ZM560.078 34.9688C558.766 33.4688 558.109 32.0156 558.109 30.6094C558.109 29.0156 558.578 27.6562 559.516 26.5312C560.547 25.4062 561.859 24.8438 563.453 24.8438C564.672 24.8438 565.891 25.2188 567.109 25.9688C568.328 26.625 569.453 27.4688 570.484 28.5C571.516 29.4375 572.406 30.375 573.156 31.3125C573.906 32.25 574.375 32.9062 574.562 33.2812C574.75 33.1875 575.172 33.1406 575.828 33.1406C577.609 33.1406 579.297 33.6094 580.891 34.5469C582.578 35.3906 584.078 36.5156 585.391 37.9219C586.797 39.3281 588.016 40.8281 589.047 42.4219C590.078 44.0156 590.969 45.5156 591.719 46.9219C592.469 48.3281 593.125 49.875 593.688 51.5625C594.344 53.1562 594.859 54.7969 595.234 56.4844C595.609 58.1719 595.891 59.8125 596.078 61.4062C596.266 63 596.359 64.4531 596.359 65.7656C596.359 69.6094 595.844 73.2188 594.812 76.5938C593.875 79.875 592.281 82.7812 590.031 85.3125C587.875 87.8438 585.016 89.8125 581.453 91.2188C577.891 92.7188 573.531 93.4688 568.375 93.4688C564.625 93.4688 561.531 92.3438 559.094 90.0938C556.75 87.8438 554.922 85.2188 553.609 82.2188C552.297 79.125 551.359 75.9844 550.797 72.7969C550.328 69.6094 550.094 67.0312 550.094 65.0625C550.094 63.1875 550.328 61.3594 550.797 59.5781C551.266 57.7969 551.875 56.1562 552.625 54.6562C553.375 53.0625 554.125 51.6562 554.875 50.4375C555.719 49.2188 556.516 48.1875 557.266 47.3438L564.297 39.0469C564.203 38.6719 563.875 38.25 563.312 37.7812C562.844 37.2188 562.375 36.7031 561.906 36.2344L560.078 34.9688ZM574.281 43.9688L573.719 44.8125C572.594 46.2188 571.328 47.6719 569.922 49.1719C568.609 50.6719 567.344 52.2188 566.125 53.8125C564.906 55.4062 563.875 57.1406 563.031 59.0156C562.188 60.8906 561.766 62.9531 561.766 65.2031C561.766 67.2656 561.906 69.3281 562.188 71.3906C562.562 73.3594 563.031 75.1406 563.594 76.7344C564.25 78.3281 565.047 79.6406 565.984 80.6719C566.922 81.6094 568 82.0781 569.219 82.0781C570.25 82.0781 571.281 81.9844 572.312 81.7969C573.438 81.6094 574.422 81.4219 575.266 81.2344L580.328 78.7031C580.609 78.3281 581.078 77.8594 581.734 77.2969C582.391 76.6406 582.906 75.9844 583.281 75.3281C584.125 72.2344 584.547 69.1875 584.547 66.1875C584.547 62.25 583.891 58.5 582.578 54.9375C581.266 51.2812 579.25 47.9531 576.531 44.9531L574.844 44.1094H574.703C574.516 44.1094 574.375 44.0625 574.281 43.9688ZM609.297 32.2969C609.672 32.2031 610.094 32.1562 610.562 32.1562C611.031 32.1562 611.594 32.1094 612.25 32.0156H612.391C615.766 32.0156 618.344 32.5781 620.125 33.7031C622 34.7344 623.594 36.5156 624.906 39.0469C626.781 37.1719 628.703 35.8594 630.672 35.1094C632.641 34.2656 634.703 33.8438 636.859 33.8438C640.516 33.8438 643.797 34.7812 646.703 36.6562C649.609 38.4375 652.047 40.8281 654.016 43.8281C656.078 46.8281 657.625 50.3438 658.656 54.375C659.781 58.3125 660.344 62.3906 660.344 66.6094C660.344 70.5469 660.016 74.3906 659.359 78.1406C658.797 81.8906 658.375 85.4531 658.094 88.8281C657.062 91.2656 655.281 92.7656 652.75 93.3281H652.188C650.875 93.1406 649.562 92.625 648.25 91.7812C647.031 90.9375 646.422 89.4375 646.422 87.2812L646.562 85.875C646.656 85.4062 646.75 85.0312 646.844 84.75C646.938 84.375 647.031 84.0469 647.125 83.7656L647.969 77.5781C648.156 75.8906 648.297 74.2031 648.391 72.5156C648.578 70.8281 648.672 69.0938 648.672 67.3125C648.672 65.4375 648.484 63.2344 648.109 60.7031C647.828 58.1719 647.219 55.7812 646.281 53.5312C645.344 51.1875 644.031 49.2188 642.344 47.625C640.656 46.0312 638.453 45.2344 635.734 45.2344C634.703 45.7969 633.531 46.4531 632.219 47.2031C630.906 47.9531 629.688 48.3281 628.562 48.3281H628C627.719 48.3281 627.578 48.4219 627.578 48.6094C627.578 48.7031 627.578 48.75 627.578 48.75C627.672 48.75 627.719 48.7969 627.719 48.8906C628.188 51.6094 628.516 54.4219 628.703 57.3281C628.984 60.2344 629.125 63.1875 629.125 66.1875C629.125 68.5312 629.031 71.25 628.844 74.3438C628.75 77.3438 628.422 80.25 627.859 83.0625C627.297 85.7812 626.453 88.0781 625.328 89.9531C624.297 91.9219 622.797 92.9062 620.828 92.9062C619.422 92.9062 618.062 92.4375 616.75 91.5C615.531 90.5625 614.922 89.0156 614.922 86.8594C614.922 86.2969 614.969 85.875 615.062 85.5938C616.844 79.4062 617.734 72.5156 617.734 64.9219C617.734 56.9531 616.984 50.25 615.484 44.8125L615.062 44.25C614.125 44.1562 613.094 43.9688 611.969 43.6875C610.938 43.4062 609.953 43.0312 609.016 42.5625C608.078 42 607.281 41.3438 606.625 40.5938C605.969 39.75 605.641 38.7188 605.641 37.5C605.641 35.1562 606.859 33.4219 609.297 32.2969Z" fill="white"/>
</g>
<defs>
<filter id="filter0_d" x="0.328125" y="0.09375" width="664.016" height="127.109" filterUnits="userSpaceOnUse" color-interpolation-filters="sRGB">
<feFlood flood-opacity="0" result="BackgroundImageFix"/>
<feColorMatrix in="SourceAlpha" type="matrix" values="0 0 0 0 0 0 0 0 0 0 0 0 0 0 0 0 0 0 127 0"/>
<feOffset dy="4"/>
<feGaussianBlur stdDeviation="2"/>
<feColorMatrix type="matrix" values="0 0 0 0 0 0 0 0 0 0 0 0 0 0 0 0 0 0 0.25 0"/>
<feBlend mode="normal" in2="BackgroundImageFix" result="effect1_dropShadow"/>
<feBlend mode="normal" in="SourceGraphic" in2="effect1_dropShadow" result="shape"/>
</filter>
</defs>
</svg>
