<svg width="316" height="252" viewBox="0 0 316 252" fill="none" xmlns="http://www.w3.org/2000/svg">
<path fill-rule="evenodd" clip-rule="evenodd" d="M148.501 10C122.577 10 101.352 30.1347 99.6157 55.6153C99.5396 56.7329 99.5009 57.8616 99.5009 59C99.5009 86.062 121.439 108 148.501 108C161.496 108 173.3 102.948 182.074 94.6909C184.085 92.7985 187.249 92.8946 189.142 94.9055C191.034 96.9165 190.938 100.081 188.927 101.973C178.372 111.906 164.143 118 148.501 118C118.649 118 93.9751 95.8298 90.0463 67.0565C71.4644 87.767 59.7831 114.781 58.6002 144.5H305.402C304.449 120.553 296.681 98.371 283.984 79.8244L283.971 79.8055L283.958 79.7864C255.588 37.5156 203.536 10 148.501 10ZM57.6398 154.5C56.152 158.557 52.9016 161.449 49.2026 163.287C44.2816 165.733 38.0553 166.667 32.0264 166.622C25.9305 166.577 19.5438 165.529 14.0701 163.586C8.78822 161.711 3.48286 158.688 0.713291 154.072C-0.70745 151.705 0.0603755 148.633 2.42828 147.213C4.79618 145.792 7.86748 146.56 9.28822 148.928C10.2686 150.562 12.9008 152.559 17.4158 154.162C21.739 155.697 27.0086 156.585 32.1002 156.623C37.2588 156.661 41.7512 155.824 44.7522 154.332C47.6035 152.915 48.5008 151.312 48.5008 149.5C48.5008 111.525 64.3626 77.2483 89.8081 52.9454C92.8421 23.2026 117.96 0 148.501 0C206.689 0 261.926 29.0289 292.25 74.1959C306.92 95.6335 315.501 121.572 315.501 149.5V154.5H57.6398Z" fill="white"/>
<circle cx="253.001" cy="106.5" r="14.5" fill="white"/>
<mask id="path-3-outside-1" maskUnits="userSpaceOnUse" x="55.5008" y="180" width="252" height="72" fill="black">
<rect fill="white" x="55.5008" y="180" width="252" height="72"/>
<path d="M86.2747 185.532C86.7808 186.484 87.0338 187.379 87.0338 188.218C87.0338 189.002 86.6964 189.701 86.0217 190.317C85.4031 190.876 84.5878 191.156 83.5757 191.156C82.9009 191.156 82.2824 191.016 81.7201 190.736C79.5271 188.89 77.1373 187.966 74.5507 187.966C71.6267 187.966 69.1526 189.141 67.1283 191.492C67.0721 191.715 66.9877 191.967 66.8752 192.247C66.819 192.527 66.7347 192.779 66.6222 193.002C66.6222 195.353 67.2407 197.311 68.4778 198.878C69.7149 200.388 71.2612 201.759 73.1168 202.99C74.9724 204.165 76.9686 205.285 79.1053 206.348C81.2421 207.411 83.2383 208.642 85.0939 210.041C86.9495 211.44 88.4958 213.146 89.7329 215.161C90.9699 217.119 91.5885 219.581 91.5885 222.547C91.5885 225.009 90.9981 227.079 89.8172 228.758C88.6926 230.436 87.2587 231.807 85.5156 232.871C83.7725 233.878 81.9169 234.605 79.9488 235.053C77.9807 235.556 76.1533 235.808 74.4663 235.808C71.5424 235.808 68.6746 235.193 65.8631 233.962C63.0516 232.787 60.6056 230.996 58.525 228.59C58.0752 227.974 57.6254 227.191 57.1755 226.24C56.7257 225.289 56.5008 224.365 56.5008 223.47C56.5008 222.519 56.7819 221.707 57.3442 221.036C57.9627 220.309 58.8343 219.945 59.9589 219.945C61.0273 219.945 61.8708 220.42 62.4893 221.372C63.164 222.267 63.7545 223.386 64.2605 224.729C65.7225 226.184 67.297 227.275 68.9839 228.002C70.6708 228.674 72.4139 229.01 74.2133 229.01C74.8881 229.01 75.7315 228.954 76.7437 228.842C77.7558 228.674 78.7398 228.422 79.6958 228.086C80.7079 227.751 81.6076 227.331 82.3948 226.827C83.2383 226.268 83.8287 225.596 84.1661 224.813C84.2785 224.365 84.3629 224.002 84.4191 223.722C84.5316 223.386 84.644 223.078 84.7565 222.799C84.4191 220.896 83.7162 219.245 82.6479 217.847C81.6357 216.448 80.4268 215.217 79.021 214.153C77.6152 213.09 76.1251 212.167 74.5507 211.384C73.0325 210.6 71.6267 209.845 70.3334 209.118C68.028 207.831 65.9474 206.292 64.0918 204.501C62.2362 202.655 60.8305 199.997 59.8746 196.528C59.5934 195.52 59.4528 194.569 59.4528 193.674C59.4528 191.771 59.9308 190.037 60.8867 188.47C61.8426 186.903 63.0797 185.588 64.5979 184.525C66.1161 183.406 67.8312 182.539 69.743 181.923C71.6548 181.308 73.5948 181 75.5628 181C77.8683 181 79.8645 181.42 81.5514 182.259C83.2383 183.042 84.8127 184.133 86.2747 185.532Z"/>
<path d="M118.41 248.314C118.073 249.377 117.511 250.077 116.723 250.412C115.936 250.748 115.205 250.916 114.53 250.916C113.743 250.804 113.068 250.468 112.506 249.909C111.944 249.349 111.635 248.51 111.578 247.391C111.691 246.104 111.86 244.677 112.084 243.11C112.366 241.6 112.619 240.005 112.844 238.326C113.125 236.703 113.378 235.053 113.603 233.374C113.884 231.751 114.109 230.185 114.277 228.674H112.422C111.185 228.674 109.779 228.282 108.205 227.499C106.63 226.715 105.112 225.708 103.65 224.477C102.188 223.19 100.895 221.763 99.77 220.197C98.7016 218.63 97.9987 217.063 97.6614 215.496C97.324 214.098 97.1553 212.671 97.1553 211.216C97.1553 208.362 97.9144 205.816 99.4326 203.578C100.951 201.284 103.734 199.381 107.783 197.871C109.245 197.367 110.538 197.003 111.663 196.779C112.787 196.556 113.828 196.444 114.783 196.444C117.258 196.667 119.169 197.675 120.519 199.465C121.868 201.2 122.543 204.11 122.543 208.194C122.543 210.153 122.431 212.615 122.206 215.58C121.981 218.546 121.672 221.819 121.278 225.4C120.884 228.926 120.435 232.647 119.929 236.564C119.422 240.536 118.916 244.453 118.41 248.314ZM115.037 221.791C115.149 220.169 115.29 218.49 115.458 216.755C115.627 215.021 115.711 213.258 115.711 211.468C115.711 210.181 115.655 208.866 115.543 207.523C115.43 206.18 115.29 204.865 115.121 203.578C114.84 203.578 114.587 203.578 114.362 203.578C114.193 203.522 113.996 203.494 113.771 203.494C112.422 203.494 111.157 203.718 109.976 204.165C108.795 204.557 107.755 205.117 106.855 205.844C105.955 206.516 105.252 207.299 104.746 208.194C104.24 209.09 103.987 210.013 103.987 210.964C103.987 212.139 104.325 213.37 104.999 214.657C105.674 215.944 106.49 217.119 107.445 218.182C108.458 219.189 109.526 220.057 110.651 220.784C111.775 221.456 112.815 221.791 113.771 221.791H115.037Z"/>
<path d="M162.101 233.206C161.876 233.206 161.68 233.234 161.511 233.29C160.049 233.29 158.699 232.898 157.462 232.115C156.281 231.332 155.41 230.38 154.848 229.261V229.177C154.791 229.177 154.679 229.317 154.51 229.597C153.217 231.164 151.924 232.283 150.63 232.954C149.337 233.626 147.847 233.962 146.16 233.962C143.967 233.962 141.858 233.654 139.834 233.038C137.81 232.423 136.039 231.472 134.52 230.185C133.002 228.898 131.765 227.303 130.809 225.4C129.909 223.442 129.46 221.148 129.46 218.518C129.46 215.944 129.685 213.258 130.134 210.46C130.64 207.663 131.006 205.089 131.231 202.739C131.512 201.675 131.99 200.892 132.665 200.388C133.396 199.885 134.099 199.633 134.773 199.633C135.729 199.633 136.517 199.969 137.135 200.64C137.81 201.256 138.147 202.207 138.147 203.494C138.035 204.277 137.866 205.201 137.641 206.264C137.472 207.271 137.304 208.39 137.135 209.621C136.966 210.796 136.798 212.027 136.629 213.314C136.517 214.601 136.46 215.86 136.46 217.091C136.46 218.322 136.657 219.553 137.051 220.784C137.444 222.015 137.978 223.134 138.653 224.141C139.384 225.093 140.2 225.876 141.099 226.492C141.999 227.107 142.955 227.415 143.967 227.415C144.642 227.415 145.345 227.359 146.076 227.247C146.807 227.135 147.51 226.771 148.184 226.156C148.915 225.484 149.59 224.505 150.209 223.218C150.827 221.931 151.305 220.113 151.642 217.763C151.586 216.867 151.53 216.056 151.474 215.329C151.474 214.601 151.474 213.93 151.474 213.314L151.389 201.647C151.614 200.696 152.008 199.969 152.57 199.465C153.189 198.962 153.92 198.654 154.763 198.542C156.45 198.542 157.631 199.549 158.306 201.564C158.306 202.179 158.278 202.823 158.221 203.494C158.221 204.11 158.221 204.725 158.221 205.341C158.221 207.019 158.278 208.67 158.39 210.293C158.503 211.859 158.559 213.454 158.559 215.077C158.559 215.636 158.559 216.196 158.559 216.755C158.559 217.259 158.531 217.763 158.474 218.266C158.699 219.609 159.009 220.896 159.402 222.127C159.852 223.358 160.386 224.421 161.005 225.317C161.174 225.261 161.455 225.233 161.848 225.233C162.748 225.233 163.507 225.568 164.126 226.24C164.8 226.911 165.138 227.863 165.138 229.094C164.969 229.933 164.772 230.576 164.547 231.024C164.379 231.416 164.013 231.919 163.451 232.535L162.101 233.206Z"/>
<path d="M176.524 210.712C176.412 210.768 176.356 210.824 176.356 210.88H176.524C176.918 210.88 177.312 210.992 177.705 211.216C178.099 211.384 178.436 211.608 178.717 211.887C178.999 212.111 179.223 212.335 179.392 212.559C179.617 212.727 179.758 212.811 179.814 212.811C180.657 213.202 181.585 213.398 182.597 213.398C184.228 213.398 185.606 213.174 186.73 212.727C187.855 212.223 188.417 211.048 188.417 209.201C188.08 208.082 187.686 207.159 187.236 206.432C186.843 205.704 186.168 205.005 185.212 204.333L183.441 203.578H182.26C181.81 203.578 181.22 203.69 180.489 203.914C179.758 204.137 179.027 204.445 178.296 204.837C178.071 205.173 177.846 205.676 177.621 206.348C177.396 206.963 177.199 207.579 177.03 208.194C176.862 208.81 176.721 209.369 176.609 209.873C176.552 210.376 176.524 210.656 176.524 210.712ZM177.199 218.854L176.946 217.93C177.621 220.896 179.252 223.33 181.838 225.233C182.4 225.68 183.103 226.072 183.947 226.408C184.846 226.743 185.718 227.051 186.561 227.331C187.461 227.611 188.248 227.835 188.923 228.002C189.598 228.114 190.02 228.17 190.188 228.17C190.751 227.667 191.454 227.415 192.297 227.415C193.309 227.527 194.096 227.946 194.659 228.674C195.221 229.345 195.502 230.073 195.502 230.856C195.502 232.087 194.912 233.066 193.731 233.794C192.606 234.577 191.397 234.969 190.104 234.969C187.349 234.969 184.734 234.409 182.26 233.29C179.786 232.227 177.621 230.772 175.765 228.926C173.91 227.079 172.391 224.953 171.211 222.547C170.086 220.141 169.467 217.595 169.355 214.909C169.355 213.062 169.496 211.076 169.777 208.95C170.058 206.823 170.648 204.865 171.548 203.074C172.448 201.228 173.741 199.689 175.428 198.458C177.171 197.227 179.476 196.612 182.344 196.612C184.144 196.612 185.83 197.003 187.405 197.787C188.979 198.514 190.329 199.521 191.454 200.808C192.634 202.095 193.562 203.578 194.237 205.257C194.912 206.879 195.249 208.586 195.249 210.376C195.249 211.999 194.94 213.426 194.321 214.657C193.759 215.888 192.972 216.923 191.96 217.763C190.947 218.546 189.739 219.161 188.333 219.609C186.983 220.001 185.549 220.197 184.031 220.197C183.413 220.197 182.71 220.141 181.922 220.029C181.191 219.917 180.489 219.805 179.814 219.693C179.139 219.525 178.549 219.385 178.043 219.273C177.593 219.106 177.312 218.966 177.199 218.854Z"/>
<path d="M224.686 221.12L224.095 221.036C223.252 220.868 222.465 220.588 221.734 220.197C221.059 219.805 220.384 219.413 219.709 219.022C219.035 218.63 218.388 218.294 217.769 218.014C217.151 217.679 216.532 217.511 215.914 217.511C213.946 217.735 212.231 218.406 210.769 219.525C209.363 220.644 208.66 221.987 208.66 223.554C208.66 224.002 208.772 224.477 208.997 224.981C209.222 225.484 209.588 226.128 210.094 226.911C211.556 227.807 213.158 228.254 214.902 228.254C216.926 228.254 218.697 228.058 220.215 227.667L221.312 226.576C221.874 225.848 222.633 225.484 223.589 225.484H224.011C224.067 225.037 224.123 224.589 224.18 224.141C224.236 223.694 224.32 223.246 224.433 222.799L224.686 221.12ZM225.951 231.276L224.011 233.122C223.28 233.794 222.099 234.269 220.468 234.549C218.894 234.885 217.235 235.053 215.492 235.053C213.13 235.053 211.106 234.801 209.419 234.297C207.788 233.794 206.355 232.815 205.118 231.36C203.093 228.674 202.081 226.156 202.081 223.806C202.081 222.239 202.39 220.7 203.009 219.189C203.684 217.623 204.611 216.224 205.792 214.993C206.973 213.762 208.407 212.755 210.094 211.971C211.837 211.188 213.777 210.796 215.914 210.796C216.813 210.908 217.685 211.104 218.528 211.384C219.372 211.663 220.159 211.971 220.89 212.307C221.621 212.643 222.268 212.978 222.83 213.314C223.449 213.594 223.927 213.818 224.264 213.986L223.758 211.719C223.477 210.824 223.139 209.957 222.746 209.118C222.352 208.222 221.874 207.355 221.312 206.516L219.625 205.005C219.175 204.893 218.753 204.753 218.36 204.585C217.966 204.361 217.46 204.249 216.842 204.249C215.211 204.361 213.608 204.585 212.034 204.921C210.459 205.201 208.885 205.62 207.31 206.18C207.142 206.236 206.889 206.264 206.551 206.264C205.371 206.264 204.443 205.928 203.768 205.257C203.149 204.585 202.84 203.858 202.84 203.074C202.84 202.403 203.009 201.815 203.346 201.312C203.684 200.752 204.33 200.193 205.286 199.633C206.748 199.185 208.351 198.71 210.094 198.206C211.893 197.647 213.693 197.367 215.492 197.367C218.585 197.367 221.143 197.982 223.167 199.213C225.248 200.444 226.879 202.067 228.059 204.082C229.297 206.04 230.14 208.222 230.59 210.628C231.096 213.034 231.349 215.412 231.349 217.763C231.349 219.161 231.293 220.672 231.18 222.295C231.124 223.862 230.927 225.345 230.59 226.743C230.309 228.086 229.887 229.205 229.325 230.101C228.762 230.996 228.003 231.444 227.047 231.444C226.822 231.444 226.597 231.444 226.373 231.444C226.148 231.388 226.007 231.332 225.951 231.276Z"/>
<path d="M263.906 205.089C265.031 205.089 265.987 205.369 266.774 205.928C267.561 206.432 267.955 207.215 267.955 208.278C267.955 208.894 267.786 209.509 267.449 210.125C267.168 210.74 266.633 211.3 265.846 211.803C264.272 212.251 262.641 212.783 260.954 213.398C259.267 213.958 257.608 214.601 255.978 215.329C254.403 216.056 252.885 216.867 251.423 217.763C250.017 218.602 248.808 219.469 247.796 220.365C248.077 220.365 248.724 220.588 249.736 221.036C250.748 221.428 251.704 221.819 252.604 222.211C254.966 223.274 257.271 224.309 259.52 225.317C261.826 226.324 264.328 226.911 267.027 227.079C269.051 227.751 270.064 228.926 270.064 230.604C269.782 232.283 268.742 233.402 266.943 233.962C265.256 233.794 263.681 233.542 262.219 233.206C260.814 232.926 259.352 232.563 257.833 232.115C256.371 231.612 254.797 231.024 253.11 230.353C251.423 229.625 249.483 228.758 247.29 227.751C246.615 227.471 246.278 227.331 246.278 227.331V232.367C246.278 233.206 245.941 233.906 245.266 234.465C244.591 235.081 243.86 235.388 243.073 235.388C242.229 235.388 241.414 235.137 240.627 234.633C239.84 234.129 239.446 233.262 239.446 232.031C239.446 224.03 239.334 216.14 239.109 208.362C238.884 200.584 238.771 192.639 238.771 184.525C238.996 183.574 239.39 182.847 239.952 182.343C240.571 181.839 241.302 181.532 242.145 181.42C243.832 181.42 244.985 182.427 245.603 184.441C245.603 188.47 245.631 192.443 245.688 196.36C245.744 200.277 245.828 204.193 245.941 208.11L246.109 213.566C248.471 211.831 251.142 210.209 254.122 208.698C257.102 207.187 260.364 205.984 263.906 205.089Z"/>
<path d="M277.064 203.242C277.289 202.235 277.683 201.48 278.245 200.976C278.864 200.472 279.595 200.165 280.438 200.053C281.563 200.053 282.378 200.472 282.884 201.312C283.39 202.095 283.728 203.074 283.896 204.249C284.121 205.424 284.234 206.683 284.234 208.026C284.29 209.369 284.374 210.572 284.487 211.635C284.599 212.643 284.74 213.678 284.908 214.741C285.077 215.748 285.358 216.699 285.752 217.595C286.202 218.49 286.792 219.217 287.523 219.777C288.31 220.337 289.379 220.616 290.728 220.616C291.066 220.616 291.375 220.588 291.656 220.532C291.937 220.42 292.218 220.309 292.499 220.197L294.608 219.189C294.945 218.966 295.367 218.546 295.873 217.93C296.379 217.259 296.857 216.42 297.307 215.412C297.813 214.405 298.235 213.258 298.572 211.971C298.966 210.628 299.163 209.145 299.163 207.523C299.163 206.907 299.135 206.348 299.078 205.844C299.078 205.341 299.078 204.865 299.078 204.417L299.753 202.655L300.006 202.319C301.131 201.536 302.115 201.144 302.958 201.144C303.577 201.144 304.111 201.312 304.561 201.647C305.011 201.927 305.32 202.235 305.489 202.571L305.995 203.662L306.079 204.165C306.079 205.62 306.107 207.075 306.163 208.53C306.22 209.929 306.248 211.468 306.248 213.146C306.304 214.825 306.36 216.699 306.416 218.77C306.473 220.84 306.501 223.218 306.501 225.904C306.501 229.094 306.276 231.947 305.826 234.465C305.376 236.983 304.505 239.221 303.211 241.18C301.974 243.138 300.259 244.873 298.066 246.384C295.873 247.95 293.005 249.349 289.463 250.58C288.844 250.86 288.085 251 287.186 251C286.623 251 286.033 250.916 285.414 250.748C284.852 250.636 284.318 250.412 283.812 250.077C283.306 249.797 282.884 249.377 282.547 248.818C282.209 248.314 282.012 247.671 281.956 246.887C281.956 245.488 282.322 244.453 283.053 243.782C283.84 243.11 284.655 242.775 285.499 242.775H286.005H286.174C286.792 242.775 287.411 243.138 288.029 243.866L288.282 243.782C288.788 243.558 289.294 243.334 289.8 243.11C290.25 242.942 290.672 242.747 291.066 242.523C291.459 242.299 291.797 242.131 292.078 242.019C293.765 241.18 295.114 240.145 296.126 238.914C297.195 237.683 297.982 236.284 298.488 234.717C299.05 233.206 299.416 231.584 299.584 229.849C299.753 228.058 299.837 226.184 299.837 224.225V222.631C298.938 223.526 297.701 224.449 296.126 225.4C294.608 226.296 292.556 226.743 289.969 226.743C287.045 226.743 284.74 226.016 283.053 224.561C281.422 223.106 280.185 221.232 279.342 218.938C278.498 216.643 277.936 214.125 277.655 211.384C277.43 208.586 277.233 205.872 277.064 203.242Z"/>
</mask>
<path d="M86.2747 185.532C86.7808 186.484 87.0338 187.379 87.0338 188.218C87.0338 189.002 86.6964 189.701 86.0217 190.317C85.4031 190.876 84.5878 191.156 83.5757 191.156C82.9009 191.156 82.2824 191.016 81.7201 190.736C79.5271 188.89 77.1373 187.966 74.5507 187.966C71.6267 187.966 69.1526 189.141 67.1283 191.492C67.0721 191.715 66.9877 191.967 66.8752 192.247C66.819 192.527 66.7347 192.779 66.6222 193.002C66.6222 195.353 67.2407 197.311 68.4778 198.878C69.7149 200.388 71.2612 201.759 73.1168 202.99C74.9724 204.165 76.9686 205.285 79.1053 206.348C81.2421 207.411 83.2383 208.642 85.0939 210.041C86.9495 211.44 88.4958 213.146 89.7329 215.161C90.9699 217.119 91.5885 219.581 91.5885 222.547C91.5885 225.009 90.9981 227.079 89.8172 228.758C88.6926 230.436 87.2587 231.807 85.5156 232.871C83.7725 233.878 81.9169 234.605 79.9488 235.053C77.9807 235.556 76.1533 235.808 74.4663 235.808C71.5424 235.808 68.6746 235.193 65.8631 233.962C63.0516 232.787 60.6056 230.996 58.525 228.59C58.0752 227.974 57.6254 227.191 57.1755 226.24C56.7257 225.289 56.5008 224.365 56.5008 223.47C56.5008 222.519 56.7819 221.707 57.3442 221.036C57.9627 220.309 58.8343 219.945 59.9589 219.945C61.0273 219.945 61.8708 220.42 62.4893 221.372C63.164 222.267 63.7545 223.386 64.2605 224.729C65.7225 226.184 67.297 227.275 68.9839 228.002C70.6708 228.674 72.4139 229.01 74.2133 229.01C74.8881 229.01 75.7315 228.954 76.7437 228.842C77.7558 228.674 78.7398 228.422 79.6958 228.086C80.7079 227.751 81.6076 227.331 82.3948 226.827C83.2383 226.268 83.8287 225.596 84.1661 224.813C84.2785 224.365 84.3629 224.002 84.4191 223.722C84.5316 223.386 84.644 223.078 84.7565 222.799C84.4191 220.896 83.7162 219.245 82.6479 217.847C81.6357 216.448 80.4268 215.217 79.021 214.153C77.6152 213.09 76.1251 212.167 74.5507 211.384C73.0325 210.6 71.6267 209.845 70.3334 209.118C68.028 207.831 65.9474 206.292 64.0918 204.501C62.2362 202.655 60.8305 199.997 59.8746 196.528C59.5934 195.52 59.4528 194.569 59.4528 193.674C59.4528 191.771 59.9308 190.037 60.8867 188.47C61.8426 186.903 63.0797 185.588 64.5979 184.525C66.1161 183.406 67.8312 182.539 69.743 181.923C71.6548 181.308 73.5948 181 75.5628 181C77.8683 181 79.8645 181.42 81.5514 182.259C83.2383 183.042 84.8127 184.133 86.2747 185.532Z" fill="white"/>
<path d="M118.41 248.314C118.073 249.377 117.511 250.077 116.723 250.412C115.936 250.748 115.205 250.916 114.53 250.916C113.743 250.804 113.068 250.468 112.506 249.909C111.944 249.349 111.635 248.51 111.578 247.391C111.691 246.104 111.86 244.677 112.084 243.11C112.366 241.6 112.619 240.005 112.844 238.326C113.125 236.703 113.378 235.053 113.603 233.374C113.884 231.751 114.109 230.185 114.277 228.674H112.422C111.185 228.674 109.779 228.282 108.205 227.499C106.63 226.715 105.112 225.708 103.65 224.477C102.188 223.19 100.895 221.763 99.77 220.197C98.7016 218.63 97.9987 217.063 97.6614 215.496C97.324 214.098 97.1553 212.671 97.1553 211.216C97.1553 208.362 97.9144 205.816 99.4326 203.578C100.951 201.284 103.734 199.381 107.783 197.871C109.245 197.367 110.538 197.003 111.663 196.779C112.787 196.556 113.828 196.444 114.783 196.444C117.258 196.667 119.169 197.675 120.519 199.465C121.868 201.2 122.543 204.11 122.543 208.194C122.543 210.153 122.431 212.615 122.206 215.58C121.981 218.546 121.672 221.819 121.278 225.4C120.884 228.926 120.435 232.647 119.929 236.564C119.422 240.536 118.916 244.453 118.41 248.314ZM115.037 221.791C115.149 220.169 115.29 218.49 115.458 216.755C115.627 215.021 115.711 213.258 115.711 211.468C115.711 210.181 115.655 208.866 115.543 207.523C115.43 206.18 115.29 204.865 115.121 203.578C114.84 203.578 114.587 203.578 114.362 203.578C114.193 203.522 113.996 203.494 113.771 203.494C112.422 203.494 111.157 203.718 109.976 204.165C108.795 204.557 107.755 205.117 106.855 205.844C105.955 206.516 105.252 207.299 104.746 208.194C104.24 209.09 103.987 210.013 103.987 210.964C103.987 212.139 104.325 213.37 104.999 214.657C105.674 215.944 106.49 217.119 107.445 218.182C108.458 219.189 109.526 220.057 110.651 220.784C111.775 221.456 112.815 221.791 113.771 221.791H115.037Z" fill="white"/>
<path d="M162.101 233.206C161.876 233.206 161.68 233.234 161.511 233.29C160.049 233.29 158.699 232.898 157.462 232.115C156.281 231.332 155.41 230.38 154.848 229.261V229.177C154.791 229.177 154.679 229.317 154.51 229.597C153.217 231.164 151.924 232.283 150.63 232.954C149.337 233.626 147.847 233.962 146.16 233.962C143.967 233.962 141.858 233.654 139.834 233.038C137.81 232.423 136.039 231.472 134.52 230.185C133.002 228.898 131.765 227.303 130.809 225.4C129.909 223.442 129.46 221.148 129.46 218.518C129.46 215.944 129.685 213.258 130.134 210.46C130.64 207.663 131.006 205.089 131.231 202.739C131.512 201.675 131.99 200.892 132.665 200.388C133.396 199.885 134.099 199.633 134.773 199.633C135.729 199.633 136.517 199.969 137.135 200.64C137.81 201.256 138.147 202.207 138.147 203.494C138.035 204.277 137.866 205.201 137.641 206.264C137.472 207.271 137.304 208.39 137.135 209.621C136.966 210.796 136.798 212.027 136.629 213.314C136.517 214.601 136.46 215.86 136.46 217.091C136.46 218.322 136.657 219.553 137.051 220.784C137.444 222.015 137.978 223.134 138.653 224.141C139.384 225.093 140.2 225.876 141.099 226.492C141.999 227.107 142.955 227.415 143.967 227.415C144.642 227.415 145.345 227.359 146.076 227.247C146.807 227.135 147.51 226.771 148.184 226.156C148.915 225.484 149.59 224.505 150.209 223.218C150.827 221.931 151.305 220.113 151.642 217.763C151.586 216.867 151.53 216.056 151.474 215.329C151.474 214.601 151.474 213.93 151.474 213.314L151.389 201.647C151.614 200.696 152.008 199.969 152.57 199.465C153.189 198.962 153.92 198.654 154.763 198.542C156.45 198.542 157.631 199.549 158.306 201.564C158.306 202.179 158.278 202.823 158.221 203.494C158.221 204.11 158.221 204.725 158.221 205.341C158.221 207.019 158.278 208.67 158.39 210.293C158.503 211.859 158.559 213.454 158.559 215.077C158.559 215.636 158.559 216.196 158.559 216.755C158.559 217.259 158.531 217.763 158.474 218.266C158.699 219.609 159.009 220.896 159.402 222.127C159.852 223.358 160.386 224.421 161.005 225.317C161.174 225.261 161.455 225.233 161.848 225.233C162.748 225.233 163.507 225.568 164.126 226.24C164.8 226.911 165.138 227.863 165.138 229.094C164.969 229.933 164.772 230.576 164.547 231.024C164.379 231.416 164.013 231.919 163.451 232.535L162.101 233.206Z" fill="white"/>
<path d="M176.524 210.712C176.412 210.768 176.356 210.824 176.356 210.88H176.524C176.918 210.88 177.312 210.992 177.705 211.216C178.099 211.384 178.436 211.608 178.717 211.887C178.999 212.111 179.223 212.335 179.392 212.559C179.617 212.727 179.758 212.811 179.814 212.811C180.657 213.202 181.585 213.398 182.597 213.398C184.228 213.398 185.606 213.174 186.73 212.727C187.855 212.223 188.417 211.048 188.417 209.201C188.08 208.082 187.686 207.159 187.236 206.432C186.843 205.704 186.168 205.005 185.212 204.333L183.441 203.578H182.26C181.81 203.578 181.22 203.69 180.489 203.914C179.758 204.137 179.027 204.445 178.296 204.837C178.071 205.173 177.846 205.676 177.621 206.348C177.396 206.963 177.199 207.579 177.03 208.194C176.862 208.81 176.721 209.369 176.609 209.873C176.552 210.376 176.524 210.656 176.524 210.712ZM177.199 218.854L176.946 217.93C177.621 220.896 179.252 223.33 181.838 225.233C182.4 225.68 183.103 226.072 183.947 226.408C184.846 226.743 185.718 227.051 186.561 227.331C187.461 227.611 188.248 227.835 188.923 228.002C189.598 228.114 190.02 228.17 190.188 228.17C190.751 227.667 191.454 227.415 192.297 227.415C193.309 227.527 194.096 227.946 194.659 228.674C195.221 229.345 195.502 230.073 195.502 230.856C195.502 232.087 194.912 233.066 193.731 233.794C192.606 234.577 191.397 234.969 190.104 234.969C187.349 234.969 184.734 234.409 182.26 233.29C179.786 232.227 177.621 230.772 175.765 228.926C173.91 227.079 172.391 224.953 171.211 222.547C170.086 220.141 169.467 217.595 169.355 214.909C169.355 213.062 169.496 211.076 169.777 208.95C170.058 206.823 170.648 204.865 171.548 203.074C172.448 201.228 173.741 199.689 175.428 198.458C177.171 197.227 179.476 196.612 182.344 196.612C184.144 196.612 185.83 197.003 187.405 197.787C188.979 198.514 190.329 199.521 191.454 200.808C192.634 202.095 193.562 203.578 194.237 205.257C194.912 206.879 195.249 208.586 195.249 210.376C195.249 211.999 194.94 213.426 194.321 214.657C193.759 215.888 192.972 216.923 191.96 217.763C190.947 218.546 189.739 219.161 188.333 219.609C186.983 220.001 185.549 220.197 184.031 220.197C183.413 220.197 182.71 220.141 181.922 220.029C181.191 219.917 180.489 219.805 179.814 219.693C179.139 219.525 178.549 219.385 178.043 219.273C177.593 219.106 177.312 218.966 177.199 218.854Z" fill="white"/>
<path d="M224.686 221.12L224.095 221.036C223.252 220.868 222.465 220.588 221.734 220.197C221.059 219.805 220.384 219.413 219.709 219.022C219.035 218.63 218.388 218.294 217.769 218.014C217.151 217.679 216.532 217.511 215.914 217.511C213.946 217.735 212.231 218.406 210.769 219.525C209.363 220.644 208.66 221.987 208.66 223.554C208.66 224.002 208.772 224.477 208.997 224.981C209.222 225.484 209.588 226.128 210.094 226.911C211.556 227.807 213.158 228.254 214.902 228.254C216.926 228.254 218.697 228.058 220.215 227.667L221.312 226.576C221.874 225.848 222.633 225.484 223.589 225.484H224.011C224.067 225.037 224.123 224.589 224.18 224.141C224.236 223.694 224.32 223.246 224.433 222.799L224.686 221.12ZM225.951 231.276L224.011 233.122C223.28 233.794 222.099 234.269 220.468 234.549C218.894 234.885 217.235 235.053 215.492 235.053C213.13 235.053 211.106 234.801 209.419 234.297C207.788 233.794 206.355 232.815 205.118 231.36C203.093 228.674 202.081 226.156 202.081 223.806C202.081 222.239 202.39 220.7 203.009 219.189C203.684 217.623 204.611 216.224 205.792 214.993C206.973 213.762 208.407 212.755 210.094 211.971C211.837 211.188 213.777 210.796 215.914 210.796C216.813 210.908 217.685 211.104 218.528 211.384C219.372 211.663 220.159 211.971 220.89 212.307C221.621 212.643 222.268 212.978 222.83 213.314C223.449 213.594 223.927 213.818 224.264 213.986L223.758 211.719C223.477 210.824 223.139 209.957 222.746 209.118C222.352 208.222 221.874 207.355 221.312 206.516L219.625 205.005C219.175 204.893 218.753 204.753 218.36 204.585C217.966 204.361 217.46 204.249 216.842 204.249C215.211 204.361 213.608 204.585 212.034 204.921C210.459 205.201 208.885 205.62 207.31 206.18C207.142 206.236 206.889 206.264 206.551 206.264C205.371 206.264 204.443 205.928 203.768 205.257C203.149 204.585 202.84 203.858 202.84 203.074C202.84 202.403 203.009 201.815 203.346 201.312C203.684 200.752 204.33 200.193 205.286 199.633C206.748 199.185 208.351 198.71 210.094 198.206C211.893 197.647 213.693 197.367 215.492 197.367C218.585 197.367 221.143 197.982 223.167 199.213C225.248 200.444 226.879 202.067 228.059 204.082C229.297 206.04 230.14 208.222 230.59 210.628C231.096 213.034 231.349 215.412 231.349 217.763C231.349 219.161 231.293 220.672 231.18 222.295C231.124 223.862 230.927 225.345 230.59 226.743C230.309 228.086 229.887 229.205 229.325 230.101C228.762 230.996 228.003 231.444 227.047 231.444C226.822 231.444 226.597 231.444 226.373 231.444C226.148 231.388 226.007 231.332 225.951 231.276Z" fill="white"/>
<path d="M263.906 205.089C265.031 205.089 265.987 205.369 266.774 205.928C267.561 206.432 267.955 207.215 267.955 208.278C267.955 208.894 267.786 209.509 267.449 210.125C267.168 210.74 266.633 211.3 265.846 211.803C264.272 212.251 262.641 212.783 260.954 213.398C259.267 213.958 257.608 214.601 255.978 215.329C254.403 216.056 252.885 216.867 251.423 217.763C250.017 218.602 248.808 219.469 247.796 220.365C248.077 220.365 248.724 220.588 249.736 221.036C250.748 221.428 251.704 221.819 252.604 222.211C254.966 223.274 257.271 224.309 259.52 225.317C261.826 226.324 264.328 226.911 267.027 227.079C269.051 227.751 270.064 228.926 270.064 230.604C269.782 232.283 268.742 233.402 266.943 233.962C265.256 233.794 263.681 233.542 262.219 233.206C260.814 232.926 259.352 232.563 257.833 232.115C256.371 231.612 254.797 231.024 253.11 230.353C251.423 229.625 249.483 228.758 247.29 227.751C246.615 227.471 246.278 227.331 246.278 227.331V232.367C246.278 233.206 245.941 233.906 245.266 234.465C244.591 235.081 243.86 235.388 243.073 235.388C242.229 235.388 241.414 235.137 240.627 234.633C239.84 234.129 239.446 233.262 239.446 232.031C239.446 224.03 239.334 216.14 239.109 208.362C238.884 200.584 238.771 192.639 238.771 184.525C238.996 183.574 239.39 182.847 239.952 182.343C240.571 181.839 241.302 181.532 242.145 181.42C243.832 181.42 244.985 182.427 245.603 184.441C245.603 188.47 245.631 192.443 245.688 196.36C245.744 200.277 245.828 204.193 245.941 208.11L246.109 213.566C248.471 211.831 251.142 210.209 254.122 208.698C257.102 207.187 260.364 205.984 263.906 205.089Z" fill="white"/>
<path d="M277.064 203.242C277.289 202.235 277.683 201.48 278.245 200.976C278.864 200.472 279.595 200.165 280.438 200.053C281.563 200.053 282.378 200.472 282.884 201.312C283.39 202.095 283.728 203.074 283.896 204.249C284.121 205.424 284.234 206.683 284.234 208.026C284.29 209.369 284.374 210.572 284.487 211.635C284.599 212.643 284.74 213.678 284.908 214.741C285.077 215.748 285.358 216.699 285.752 217.595C286.202 218.49 286.792 219.217 287.523 219.777C288.31 220.337 289.379 220.616 290.728 220.616C291.066 220.616 291.375 220.588 291.656 220.532C291.937 220.42 292.218 220.309 292.499 220.197L294.608 219.189C294.945 218.966 295.367 218.546 295.873 217.93C296.379 217.259 296.857 216.42 297.307 215.412C297.813 214.405 298.235 213.258 298.572 211.971C298.966 210.628 299.163 209.145 299.163 207.523C299.163 206.907 299.135 206.348 299.078 205.844C299.078 205.341 299.078 204.865 299.078 204.417L299.753 202.655L300.006 202.319C301.131 201.536 302.115 201.144 302.958 201.144C303.577 201.144 304.111 201.312 304.561 201.647C305.011 201.927 305.32 202.235 305.489 202.571L305.995 203.662L306.079 204.165C306.079 205.62 306.107 207.075 306.163 208.53C306.22 209.929 306.248 211.468 306.248 213.146C306.304 214.825 306.36 216.699 306.416 218.77C306.473 220.84 306.501 223.218 306.501 225.904C306.501 229.094 306.276 231.947 305.826 234.465C305.376 236.983 304.505 239.221 303.211 241.18C301.974 243.138 300.259 244.873 298.066 246.384C295.873 247.95 293.005 249.349 289.463 250.58C288.844 250.86 288.085 251 287.186 251C286.623 251 286.033 250.916 285.414 250.748C284.852 250.636 284.318 250.412 283.812 250.077C283.306 249.797 282.884 249.377 282.547 248.818C282.209 248.314 282.012 247.671 281.956 246.887C281.956 245.488 282.322 244.453 283.053 243.782C283.84 243.11 284.655 242.775 285.499 242.775H286.005H286.174C286.792 242.775 287.411 243.138 288.029 243.866L288.282 243.782C288.788 243.558 289.294 243.334 289.8 243.11C290.25 242.942 290.672 242.747 291.066 242.523C291.459 242.299 291.797 242.131 292.078 242.019C293.765 241.18 295.114 240.145 296.126 238.914C297.195 237.683 297.982 236.284 298.488 234.717C299.05 233.206 299.416 231.584 299.584 229.849C299.753 228.058 299.837 226.184 299.837 224.225V222.631C298.938 223.526 297.701 224.449 296.126 225.4C294.608 226.296 292.556 226.743 289.969 226.743C287.045 226.743 284.74 226.016 283.053 224.561C281.422 223.106 280.185 221.232 279.342 218.938C278.498 216.643 277.936 214.125 277.655 211.384C277.43 208.586 277.233 205.872 277.064 203.242Z" fill="white"/>
<path d="M86.2747 185.532C86.7808 186.484 87.0338 187.379 87.0338 188.218C87.0338 189.002 86.6964 189.701 86.0217 190.317C85.4031 190.876 84.5878 191.156 83.5757 191.156C82.9009 191.156 82.2824 191.016 81.7201 190.736C79.5271 188.89 77.1373 187.966 74.5507 187.966C71.6267 187.966 69.1526 189.141 67.1283 191.492C67.0721 191.715 66.9877 191.967 66.8752 192.247C66.819 192.527 66.7347 192.779 66.6222 193.002C66.6222 195.353 67.2407 197.311 68.4778 198.878C69.7149 200.388 71.2612 201.759 73.1168 202.99C74.9724 204.165 76.9686 205.285 79.1053 206.348C81.2421 207.411 83.2383 208.642 85.0939 210.041C86.9495 211.44 88.4958 213.146 89.7329 215.161C90.9699 217.119 91.5885 219.581 91.5885 222.547C91.5885 225.009 90.9981 227.079 89.8172 228.758C88.6926 230.436 87.2587 231.807 85.5156 232.871C83.7725 233.878 81.9169 234.605 79.9488 235.053C77.9807 235.556 76.1533 235.808 74.4663 235.808C71.5424 235.808 68.6746 235.193 65.8631 233.962C63.0516 232.787 60.6056 230.996 58.525 228.59C58.0752 227.974 57.6254 227.191 57.1755 226.24C56.7257 225.289 56.5008 224.365 56.5008 223.47C56.5008 222.519 56.7819 221.707 57.3442 221.036C57.9627 220.309 58.8343 219.945 59.9589 219.945C61.0273 219.945 61.8708 220.42 62.4893 221.372C63.164 222.267 63.7545 223.386 64.2605 224.729C65.7225 226.184 67.297 227.275 68.9839 228.002C70.6708 228.674 72.4139 229.01 74.2133 229.01C74.8881 229.01 75.7315 228.954 76.7437 228.842C77.7558 228.674 78.7398 228.422 79.6958 228.086C80.7079 227.751 81.6076 227.331 82.3948 226.827C83.2383 226.268 83.8287 225.596 84.1661 224.813C84.2785 224.365 84.3629 224.002 84.4191 223.722C84.5316 223.386 84.644 223.078 84.7565 222.799C84.4191 220.896 83.7162 219.245 82.6479 217.847C81.6357 216.448 80.4268 215.217 79.021 214.153C77.6152 213.09 76.1251 212.167 74.5507 211.384C73.0325 210.6 71.6267 209.845 70.3334 209.118C68.028 207.831 65.9474 206.292 64.0918 204.501C62.2362 202.655 60.8305 199.997 59.8746 196.528C59.5934 195.52 59.4528 194.569 59.4528 193.674C59.4528 191.771 59.9308 190.037 60.8867 188.47C61.8426 186.903 63.0797 185.588 64.5979 184.525C66.1161 183.406 67.8312 182.539 69.743 181.923C71.6548 181.308 73.5948 181 75.5628 181C77.8683 181 79.8645 181.42 81.5514 182.259C83.2383 183.042 84.8127 184.133 86.2747 185.532Z" stroke="white" stroke-width="2" mask="url(#path-3-outside-1)"/>
<path d="M118.41 248.314C118.073 249.377 117.511 250.077 116.723 250.412C115.936 250.748 115.205 250.916 114.53 250.916C113.743 250.804 113.068 250.468 112.506 249.909C111.944 249.349 111.635 248.51 111.578 247.391C111.691 246.104 111.86 244.677 112.084 243.11C112.366 241.6 112.619 240.005 112.844 238.326C113.125 236.703 113.378 235.053 113.603 233.374C113.884 231.751 114.109 230.185 114.277 228.674H112.422C111.185 228.674 109.779 228.282 108.205 227.499C106.63 226.715 105.112 225.708 103.65 224.477C102.188 223.19 100.895 221.763 99.77 220.197C98.7016 218.63 97.9987 217.063 97.6614 215.496C97.324 214.098 97.1553 212.671 97.1553 211.216C97.1553 208.362 97.9144 205.816 99.4326 203.578C100.951 201.284 103.734 199.381 107.783 197.871C109.245 197.367 110.538 197.003 111.663 196.779C112.787 196.556 113.828 196.444 114.783 196.444C117.258 196.667 119.169 197.675 120.519 199.465C121.868 201.2 122.543 204.11 122.543 208.194C122.543 210.153 122.431 212.615 122.206 215.58C121.981 218.546 121.672 221.819 121.278 225.4C120.884 228.926 120.435 232.647 119.929 236.564C119.422 240.536 118.916 244.453 118.41 248.314ZM115.037 221.791C115.149 220.169 115.29 218.49 115.458 216.755C115.627 215.021 115.711 213.258 115.711 211.468C115.711 210.181 115.655 208.866 115.543 207.523C115.43 206.18 115.29 204.865 115.121 203.578C114.84 203.578 114.587 203.578 114.362 203.578C114.193 203.522 113.996 203.494 113.771 203.494C112.422 203.494 111.157 203.718 109.976 204.165C108.795 204.557 107.755 205.117 106.855 205.844C105.955 206.516 105.252 207.299 104.746 208.194C104.24 209.09 103.987 210.013 103.987 210.964C103.987 212.139 104.325 213.37 104.999 214.657C105.674 215.944 106.49 217.119 107.445 218.182C108.458 219.189 109.526 220.057 110.651 220.784C111.775 221.456 112.815 221.791 113.771 221.791H115.037Z" stroke="white" stroke-width="2" mask="url(#path-3-outside-1)"/>
<path d="M162.101 233.206C161.876 233.206 161.68 233.234 161.511 233.29C160.049 233.29 158.699 232.898 157.462 232.115C156.281 231.332 155.41 230.38 154.848 229.261V229.177C154.791 229.177 154.679 229.317 154.51 229.597C153.217 231.164 151.924 232.283 150.63 232.954C149.337 233.626 147.847 233.962 146.16 233.962C143.967 233.962 141.858 233.654 139.834 233.038C137.81 232.423 136.039 231.472 134.52 230.185C133.002 228.898 131.765 227.303 130.809 225.4C129.909 223.442 129.46 221.148 129.46 218.518C129.46 215.944 129.685 213.258 130.134 210.46C130.64 207.663 131.006 205.089 131.231 202.739C131.512 201.675 131.99 200.892 132.665 200.388C133.396 199.885 134.099 199.633 134.773 199.633C135.729 199.633 136.517 199.969 137.135 200.64C137.81 201.256 138.147 202.207 138.147 203.494C138.035 204.277 137.866 205.201 137.641 206.264C137.472 207.271 137.304 208.39 137.135 209.621C136.966 210.796 136.798 212.027 136.629 213.314C136.517 214.601 136.46 215.86 136.46 217.091C136.46 218.322 136.657 219.553 137.051 220.784C137.444 222.015 137.978 223.134 138.653 224.141C139.384 225.093 140.2 225.876 141.099 226.492C141.999 227.107 142.955 227.415 143.967 227.415C144.642 227.415 145.345 227.359 146.076 227.247C146.807 227.135 147.51 226.771 148.184 226.156C148.915 225.484 149.59 224.505 150.209 223.218C150.827 221.931 151.305 220.113 151.642 217.763C151.586 216.867 151.53 216.056 151.474 215.329C151.474 214.601 151.474 213.93 151.474 213.314L151.389 201.647C151.614 200.696 152.008 199.969 152.57 199.465C153.189 198.962 153.92 198.654 154.763 198.542C156.45 198.542 157.631 199.549 158.306 201.564C158.306 202.179 158.278 202.823 158.221 203.494C158.221 204.11 158.221 204.725 158.221 205.341C158.221 207.019 158.278 208.67 158.39 210.293C158.503 211.859 158.559 213.454 158.559 215.077C158.559 215.636 158.559 216.196 158.559 216.755C158.559 217.259 158.531 217.763 158.474 218.266C158.699 219.609 159.009 220.896 159.402 222.127C159.852 223.358 160.386 224.421 161.005 225.317C161.174 225.261 161.455 225.233 161.848 225.233C162.748 225.233 163.507 225.568 164.126 226.24C164.8 226.911 165.138 227.863 165.138 229.094C164.969 229.933 164.772 230.576 164.547 231.024C164.379 231.416 164.013 231.919 163.451 232.535L162.101 233.206Z" stroke="white" stroke-width="2" mask="url(#path-3-outside-1)"/>
<path d="M176.524 210.712C176.412 210.768 176.356 210.824 176.356 210.88H176.524C176.918 210.88 177.312 210.992 177.705 211.216C178.099 211.384 178.436 211.608 178.717 211.887C178.999 212.111 179.223 212.335 179.392 212.559C179.617 212.727 179.758 212.811 179.814 212.811C180.657 213.202 181.585 213.398 182.597 213.398C184.228 213.398 185.606 213.174 186.73 212.727C187.855 212.223 188.417 211.048 188.417 209.201C188.08 208.082 187.686 207.159 187.236 206.432C186.843 205.704 186.168 205.005 185.212 204.333L183.441 203.578H182.26C181.81 203.578 181.22 203.69 180.489 203.914C179.758 204.137 179.027 204.445 178.296 204.837C178.071 205.173 177.846 205.676 177.621 206.348C177.396 206.963 177.199 207.579 177.03 208.194C176.862 208.81 176.721 209.369 176.609 209.873C176.552 210.376 176.524 210.656 176.524 210.712ZM177.199 218.854L176.946 217.93C177.621 220.896 179.252 223.33 181.838 225.233C182.4 225.68 183.103 226.072 183.947 226.408C184.846 226.743 185.718 227.051 186.561 227.331C187.461 227.611 188.248 227.835 188.923 228.002C189.598 228.114 190.02 228.17 190.188 228.17C190.751 227.667 191.454 227.415 192.297 227.415C193.309 227.527 194.096 227.946 194.659 228.674C195.221 229.345 195.502 230.073 195.502 230.856C195.502 232.087 194.912 233.066 193.731 233.794C192.606 234.577 191.397 234.969 190.104 234.969C187.349 234.969 184.734 234.409 182.26 233.29C179.786 232.227 177.621 230.772 175.765 228.926C173.91 227.079 172.391 224.953 171.211 222.547C170.086 220.141 169.467 217.595 169.355 214.909C169.355 213.062 169.496 211.076 169.777 208.95C170.058 206.823 170.648 204.865 171.548 203.074C172.448 201.228 173.741 199.689 175.428 198.458C177.171 197.227 179.476 196.612 182.344 196.612C184.144 196.612 185.83 197.003 187.405 197.787C188.979 198.514 190.329 199.521 191.454 200.808C192.634 202.095 193.562 203.578 194.237 205.257C194.912 206.879 195.249 208.586 195.249 210.376C195.249 211.999 194.94 213.426 194.321 214.657C193.759 215.888 192.972 216.923 191.96 217.763C190.947 218.546 189.739 219.161 188.333 219.609C186.983 220.001 185.549 220.197 184.031 220.197C183.413 220.197 182.71 220.141 181.922 220.029C181.191 219.917 180.489 219.805 179.814 219.693C179.139 219.525 178.549 219.385 178.043 219.273C177.593 219.106 177.312 218.966 177.199 218.854Z" stroke="white" stroke-width="2" mask="url(#path-3-outside-1)"/>
<path d="M224.686 221.12L224.095 221.036C223.252 220.868 222.465 220.588 221.734 220.197C221.059 219.805 220.384 219.413 219.709 219.022C219.035 218.63 218.388 218.294 217.769 218.014C217.151 217.679 216.532 217.511 215.914 217.511C213.946 217.735 212.231 218.406 210.769 219.525C209.363 220.644 208.66 221.987 208.66 223.554C208.66 224.002 208.772 224.477 208.997 224.981C209.222 225.484 209.588 226.128 210.094 226.911C211.556 227.807 213.158 228.254 214.902 228.254C216.926 228.254 218.697 228.058 220.215 227.667L221.312 226.576C221.874 225.848 222.633 225.484 223.589 225.484H224.011C224.067 225.037 224.123 224.589 224.18 224.141C224.236 223.694 224.32 223.246 224.433 222.799L224.686 221.12ZM225.951 231.276L224.011 233.122C223.28 233.794 222.099 234.269 220.468 234.549C218.894 234.885 217.235 235.053 215.492 235.053C213.13 235.053 211.106 234.801 209.419 234.297C207.788 233.794 206.355 232.815 205.118 231.36C203.093 228.674 202.081 226.156 202.081 223.806C202.081 222.239 202.39 220.7 203.009 219.189C203.684 217.623 204.611 216.224 205.792 214.993C206.973 213.762 208.407 212.755 210.094 211.971C211.837 211.188 213.777 210.796 215.914 210.796C216.813 210.908 217.685 211.104 218.528 211.384C219.372 211.663 220.159 211.971 220.89 212.307C221.621 212.643 222.268 212.978 222.83 213.314C223.449 213.594 223.927 213.818 224.264 213.986L223.758 211.719C223.477 210.824 223.139 209.957 222.746 209.118C222.352 208.222 221.874 207.355 221.312 206.516L219.625 205.005C219.175 204.893 218.753 204.753 218.36 204.585C217.966 204.361 217.46 204.249 216.842 204.249C215.211 204.361 213.608 204.585 212.034 204.921C210.459 205.201 208.885 205.62 207.31 206.18C207.142 206.236 206.889 206.264 206.551 206.264C205.371 206.264 204.443 205.928 203.768 205.257C203.149 204.585 202.84 203.858 202.84 203.074C202.84 202.403 203.009 201.815 203.346 201.312C203.684 200.752 204.33 200.193 205.286 199.633C206.748 199.185 208.351 198.71 210.094 198.206C211.893 197.647 213.693 197.367 215.492 197.367C218.585 197.367 221.143 197.982 223.167 199.213C225.248 200.444 226.879 202.067 228.059 204.082C229.297 206.04 230.14 208.222 230.59 210.628C231.096 213.034 231.349 215.412 231.349 217.763C231.349 219.161 231.293 220.672 231.18 222.295C231.124 223.862 230.927 225.345 230.59 226.743C230.309 228.086 229.887 229.205 229.325 230.101C228.762 230.996 228.003 231.444 227.047 231.444C226.822 231.444 226.597 231.444 226.373 231.444C226.148 231.388 226.007 231.332 225.951 231.276Z" stroke="white" stroke-width="2" mask="url(#path-3-outside-1)"/>
<path d="M263.906 205.089C265.031 205.089 265.987 205.369 266.774 205.928C267.561 206.432 267.955 207.215 267.955 208.278C267.955 208.894 267.786 209.509 267.449 210.125C267.168 210.74 266.633 211.3 265.846 211.803C264.272 212.251 262.641 212.783 260.954 213.398C259.267 213.958 257.608 214.601 255.978 215.329C254.403 216.056 252.885 216.867 251.423 217.763C250.017 218.602 248.808 219.469 247.796 220.365C248.077 220.365 248.724 220.588 249.736 221.036C250.748 221.428 251.704 221.819 252.604 222.211C254.966 223.274 257.271 224.309 259.52 225.317C261.826 226.324 264.328 226.911 267.027 227.079C269.051 227.751 270.064 228.926 270.064 230.604C269.782 232.283 268.742 233.402 266.943 233.962C265.256 233.794 263.681 233.542 262.219 233.206C260.814 232.926 259.352 232.563 257.833 232.115C256.371 231.612 254.797 231.024 253.11 230.353C251.423 229.625 249.483 228.758 247.29 227.751C246.615 227.471 246.278 227.331 246.278 227.331V232.367C246.278 233.206 245.941 233.906 245.266 234.465C244.591 235.081 243.86 235.388 243.073 235.388C242.229 235.388 241.414 235.137 240.627 234.633C239.84 234.129 239.446 233.262 239.446 232.031C239.446 224.03 239.334 216.14 239.109 208.362C238.884 200.584 238.771 192.639 238.771 184.525C238.996 183.574 239.39 182.847 239.952 182.343C240.571 181.839 241.302 181.532 242.145 181.42C243.832 181.42 244.985 182.427 245.603 184.441C245.603 188.47 245.631 192.443 245.688 196.36C245.744 200.277 245.828 204.193 245.941 208.11L246.109 213.566C248.471 211.831 251.142 210.209 254.122 208.698C257.102 207.187 260.364 205.984 263.906 205.089Z" stroke="white" stroke-width="2" mask="url(#path-3-outside-1)"/>
<path d="M277.064 203.242C277.289 202.235 277.683 201.48 278.245 200.976C278.864 200.472 279.595 200.165 280.438 200.053C281.563 200.053 282.378 200.472 282.884 201.312C283.39 202.095 283.728 203.074 283.896 204.249C284.121 205.424 284.234 206.683 284.234 208.026C284.29 209.369 284.374 210.572 284.487 211.635C284.599 212.643 284.74 213.678 284.908 214.741C285.077 215.748 285.358 216.699 285.752 217.595C286.202 218.49 286.792 219.217 287.523 219.777C288.31 220.337 289.379 220.616 290.728 220.616C291.066 220.616 291.375 220.588 291.656 220.532C291.937 220.42 292.218 220.309 292.499 220.197L294.608 219.189C294.945 218.966 295.367 218.546 295.873 217.93C296.379 217.259 296.857 216.42 297.307 215.412C297.813 214.405 298.235 213.258 298.572 211.971C298.966 210.628 299.163 209.145 299.163 207.523C299.163 206.907 299.135 206.348 299.078 205.844C299.078 205.341 299.078 204.865 299.078 204.417L299.753 202.655L300.006 202.319C301.131 201.536 302.115 201.144 302.958 201.144C303.577 201.144 304.111 201.312 304.561 201.647C305.011 201.927 305.32 202.235 305.489 202.571L305.995 203.662L306.079 204.165C306.079 205.62 306.107 207.075 306.163 208.53C306.22 209.929 306.248 211.468 306.248 213.146C306.304 214.825 306.36 216.699 306.416 218.77C306.473 220.84 306.501 223.218 306.501 225.904C306.501 229.094 306.276 231.947 305.826 234.465C305.376 236.983 304.505 239.221 303.211 241.18C301.974 243.138 300.259 244.873 298.066 246.384C295.873 247.95 293.005 249.349 289.463 250.58C288.844 250.86 288.085 251 287.186 251C286.623 251 286.033 250.916 285.414 250.748C284.852 250.636 284.318 250.412 283.812 250.077C283.306 249.797 282.884 249.377 282.547 248.818C282.209 248.314 282.012 247.671 281.956 246.887C281.956 245.488 282.322 244.453 283.053 243.782C283.84 243.11 284.655 242.775 285.499 242.775H286.005H286.174C286.792 242.775 287.411 243.138 288.029 243.866L288.282 243.782C288.788 243.558 289.294 243.334 289.8 243.11C290.25 242.942 290.672 242.747 291.066 242.523C291.459 242.299 291.797 242.131 292.078 242.019C293.765 241.18 295.114 240.145 296.126 238.914C297.195 237.683 297.982 236.284 298.488 234.717C299.05 233.206 299.416 231.584 299.584 229.849C299.753 228.058 299.837 226.184 299.837 224.225V222.631C298.938 223.526 297.701 224.449 296.126 225.4C294.608 226.296 292.556 226.743 289.969 226.743C287.045 226.743 284.74 226.016 283.053 224.561C281.422 223.106 280.185 221.232 279.342 218.938C278.498 216.643 277.936 214.125 277.655 211.384C277.43 208.586 277.233 205.872 277.064 203.242Z" stroke="white" stroke-width="2" mask="url(#path-3-outside-1)"/>
</svg>
